<svg width="146" height="126" viewBox="-25 -30 200 200" fill="none" xmlns="http://www.w3.org/2000/svg">
<mask id="path-1-outside-1_104_7" maskUnits="userSpaceOnUse" x="-1" y="-1" width="148" height="128" fill="black">
<rect fill="none" x="-1" y="-1" width="148" height="128"/>
<path d="M0.365783 126V-8.58307e-06H25.0258L80.1058 71.82H65.8858L121.146 -8.58307e-06H145.446V126H118.986V81.36C118.986 71.28 119.226 61.86 119.706 53.1C120.306 44.34 121.266 35.46 122.586 26.46L125.466 35.46L78.8458 93.6H66.9658L20.1658 35.28L23.2258 26.46C24.6658 35.34 25.6258 44.16 26.1058 52.92C26.5858 61.56 26.8258 71.04 26.8258 81.36V126H0.365783Z"/>
</mask>
<path d="M0.365783 126V-8.58307e-06H25.0258L80.1058 71.82H65.8858L121.146 -8.58307e-06H145.446V126H118.986V81.36C118.986 71.28 119.226 61.86 119.706 53.1C120.306 44.34 121.266 35.46 122.586 26.46L125.466 35.46L78.8458 93.6H66.9658L20.1658 35.28L23.2258 26.46C24.6658 35.34 25.6258 44.16 26.1058 52.92C26.5858 61.56 26.8258 71.04 26.8258 81.36V126H0.365783Z" fill="#1D63FF"/>
<path d="M0.365782 126H-0.634218V127H0.365782V126ZM0.365782 -7.62939e-06V-1.00001H-0.634218V-7.62939e-06H0.365782ZM25.0258 -7.62939e-06L25.8193 -0.608566L25.5191 -1.00001H25.0258V-7.62939e-06ZM80.1058 71.82V72.82H82.1329L80.8993 71.2114L80.1058 71.82ZM65.8858 71.82L65.0932 71.2102L63.8546 72.82H65.8858V71.82ZM121.146 -7.62939e-06V-1.00001H120.653L120.353 -0.609814L121.146 -7.62939e-06ZM145.446 -7.62939e-06H146.446V-1.00001H145.446V-7.62939e-06ZM145.446 126V127H146.446V126H145.446ZM118.986 126H117.986V127H118.986V126ZM119.706 53.1L118.708 53.0317L118.707 53.0453L119.706 53.1ZM122.586 26.46L123.538 26.1552L121.596 26.3149L122.586 26.46ZM125.466 35.46L126.246 36.0856L126.582 35.6666L126.418 35.1552L125.466 35.46ZM78.8458 93.6V94.6H79.3257L79.626 94.2256L78.8458 93.6ZM66.9658 93.6L66.1859 94.2259L66.4861 94.6H66.9658V93.6ZM20.1658 35.28L19.221 34.9522L19.0398 35.4746L19.3859 35.9059L20.1658 35.28ZM23.2258 26.46L24.2129 26.2999L22.281 26.1322L23.2258 26.46ZM26.1058 52.92L25.1073 52.9747L25.1073 52.9755L26.1058 52.92ZM26.8258 126V127H27.8258V126H26.8258ZM1.36578 126V-7.62939e-06H-0.634218V126H1.36578ZM0.365782 0.999992H25.0258V-1.00001H0.365782V0.999992ZM24.2323 0.608547L79.3123 72.4286L80.8993 71.2114L25.8193 -0.608566L24.2323 0.608547ZM80.1058 70.82H65.8858V72.82H80.1058V70.82ZM66.6783 72.4298L121.938 0.609798L120.353 -0.609814L65.0932 71.2102L66.6783 72.4298ZM121.146 0.999992H145.446V-1.00001H121.146V0.999992ZM144.446 -7.62939e-06V126H146.446V-7.62939e-06H144.446ZM145.446 125H118.986V127H145.446V125ZM119.986 126V81.36H117.986V126H119.986ZM119.986 81.36C119.986 71.2956 120.225 61.8941 120.704 53.1547L118.707 53.0453C118.226 61.8259 117.986 71.2644 117.986 81.36H119.986ZM120.703 53.1683C121.302 44.4349 122.259 35.5805 123.575 26.6051L121.596 26.3149C120.273 35.3395 119.31 44.2451 118.708 53.0317L120.703 53.1683ZM121.633 26.7648L124.513 35.7648L126.418 35.1552L123.538 26.1552L121.633 26.7648ZM124.686 34.8344L78.0656 92.9744L79.626 94.2256L126.246 36.0856L124.686 34.8344ZM78.8458 92.6H66.9658V94.6H78.8458V92.6ZM67.7457 92.9741L20.9457 34.6541L19.3859 35.9059L66.1859 94.2259L67.7457 92.9741ZM21.1105 35.6078L24.1705 26.7878L22.281 26.1322L19.221 34.9522L21.1105 35.6078ZM22.2387 26.6201C23.6732 35.4661 24.6293 44.2509 25.1073 52.9747L27.1043 52.8653C26.6223 44.0691 25.6584 35.2139 24.2129 26.2999L22.2387 26.6201ZM25.1073 52.9755C25.5861 61.5939 25.8258 71.0551 25.8258 81.36H27.8258C27.8258 71.0249 27.5854 61.5261 27.1042 52.8645L25.1073 52.9755ZM25.8258 81.36V126H27.8258V81.36H25.8258ZM26.8258 125H0.365782V127H26.8258V125Z" fill="black" mask="url(#path-1-outside-1_104_7)"/>
</svg>
