<svg width="458" height="369" viewBox="0 0 458 369" fill="none" xmlns="http://www.w3.org/2000/svg">
<path d="M45.4624 242.618C50.4566 224.991 51.855 202.508 13.4994 183.75" stroke="#373737" stroke-width="25" stroke-linecap="round"/>
<path d="M120.376 134.249C127.201 140.568 148.643 149.415 179.807 134.249" stroke="#373737" stroke-width="25" stroke-linecap="round"/>
<path d="M192.792 209.077L349.61 201.095M13 342.778C34.4751 352.756 89.911 366.724 139.853 342.778C189.795 318.832 217.597 256.638 225.754 229.033C242.56 172.16 270.702 59.6122 320.644 54.4238M87.9133 100.321C72.2648 47.2729 95.5046 -36.7722 313.652 51.4303C359.998 68.1929 420.528 67.3948 445 64.9004" stroke="#373737" stroke-width="25" stroke-linecap="round"/>
<path d="M13 342.276C19.8254 330.635 37.4409 290.066 46.2308 239.38" stroke="#373737" stroke-width="25" stroke-linecap="round"/>
<path d="M13 182.253C31.4786 176.765 69.8342 161.3 75.4277 143.34" stroke="#373737" stroke-width="25" stroke-linecap="round"/>
<path d="M31.4785 299.376C55.9502 303.865 95.9039 309.353 135.858 283.91" stroke="#373737" stroke-width="25" stroke-linecap="round"/>
</svg>
